<mxfile host="app.diagrams.net" modified="2020-12-06T17:53:06.264Z" agent="5.0 (Windows)" etag="V6gzGOLhxyvMb3vLyrBA" version="13.10.9" type="github">
  <diagram name="Page-1" id="b5b7bab2-c9e2-2cf4-8b2a-24fd1a2a6d21">
    <mxGraphModel dx="1718" dy="959" grid="1" gridSize="10" guides="1" tooltips="1" connect="1" arrows="1" fold="1" page="1" pageScale="1" pageWidth="827" pageHeight="1169" background="#ffffff" math="0" shadow="0">
      <root>
        <mxCell id="0" />
        <mxCell id="1" parent="0" />
        <mxCell id="6e0c8c40b5770093-72" value="" style="shape=folder;fontStyle=1;spacingTop=10;tabWidth=194;tabHeight=22;tabPosition=left;html=1;rounded=0;shadow=0;comic=0;labelBackgroundColor=none;strokeWidth=1;fillColor=none;fontFamily=Verdana;fontSize=10;align=center;" parent="1" vertex="1">
          <mxGeometry x="156.5" y="40" width="973.5" height="1030" as="geometry" />
        </mxCell>
        <mxCell id="6e0c8c40b5770093-73" value="&amp;lt;&amp;lt;violetmanager&amp;gt;&amp;gt;" style="text;html=1;align=left;verticalAlign=top;spacingTop=-4;fontSize=10;fontFamily=Verdana" parent="1" vertex="1">
          <mxGeometry x="157.5" y="40" width="130" height="20" as="geometry" />
        </mxCell>
        <mxCell id="yLW3yvbtPbf4ESxx5c4I-72" style="edgeStyle=orthogonalEdgeStyle;rounded=0;orthogonalLoop=1;jettySize=auto;html=1;exitX=0.5;exitY=0.5;exitDx=0;exitDy=0;exitPerimeter=0;entryX=0;entryY=0.5;entryDx=0;entryDy=0;endArrow=classic;endFill=1;" edge="1" parent="1" source="yLW3yvbtPbf4ESxx5c4I-1" target="yLW3yvbtPbf4ESxx5c4I-60">
          <mxGeometry relative="1" as="geometry" />
        </mxCell>
        <mxCell id="yLW3yvbtPbf4ESxx5c4I-1" value="Admin" style="shape=umlActor;verticalLabelPosition=bottom;verticalAlign=top;html=1;outlineConnect=0;" vertex="1" parent="1">
          <mxGeometry x="50" y="315.5" width="30" height="60" as="geometry" />
        </mxCell>
        <mxCell id="yLW3yvbtPbf4ESxx5c4I-9" value="" style="group;verticalAlign=bottom;labelPosition=center;verticalLabelPosition=top;align=center;horizontal=1;" vertex="1" connectable="0" parent="1">
          <mxGeometry x="670" y="640" width="440" height="410" as="geometry" />
        </mxCell>
        <mxCell id="yLW3yvbtPbf4ESxx5c4I-10" value="authentication" style="shape=folder;fontStyle=1;spacingTop=10;tabWidth=50;tabHeight=17;tabPosition=left;html=1;rounded=0;shadow=0;comic=0;labelBackgroundColor=none;strokeWidth=1;fontFamily=Verdana;fontSize=10;align=center;" vertex="1" parent="yLW3yvbtPbf4ESxx5c4I-9">
          <mxGeometry width="440" height="410" as="geometry" />
        </mxCell>
        <mxCell id="yLW3yvbtPbf4ESxx5c4I-12" value="Login" style="ellipse;whiteSpace=wrap;html=1;" vertex="1" parent="yLW3yvbtPbf4ESxx5c4I-9">
          <mxGeometry x="90" y="40" width="120" height="80" as="geometry" />
        </mxCell>
        <mxCell id="yLW3yvbtPbf4ESxx5c4I-13" value="Logout" style="ellipse;whiteSpace=wrap;html=1;" vertex="1" parent="yLW3yvbtPbf4ESxx5c4I-9">
          <mxGeometry x="224" y="40" width="120" height="80" as="geometry" />
        </mxCell>
        <mxCell id="yLW3yvbtPbf4ESxx5c4I-51" value="" style="group;verticalAlign=bottom;labelPosition=center;verticalLabelPosition=top;align=center;horizontal=1;" vertex="1" connectable="0" parent="1">
          <mxGeometry x="193" y="640" width="440" height="410" as="geometry" />
        </mxCell>
        <mxCell id="yLW3yvbtPbf4ESxx5c4I-52" value="sync" style="shape=folder;fontStyle=1;spacingTop=10;tabWidth=50;tabHeight=17;tabPosition=left;html=1;rounded=0;shadow=0;comic=0;labelBackgroundColor=none;strokeWidth=1;fontFamily=Verdana;fontSize=10;align=center;" vertex="1" parent="yLW3yvbtPbf4ESxx5c4I-51">
          <mxGeometry width="440" height="410" as="geometry" />
        </mxCell>
        <mxCell id="yLW3yvbtPbf4ESxx5c4I-53" value="Sync to provider" style="ellipse;whiteSpace=wrap;html=1;" vertex="1" parent="yLW3yvbtPbf4ESxx5c4I-51">
          <mxGeometry x="17" y="40" width="120" height="80" as="geometry" />
        </mxCell>
        <mxCell id="yLW3yvbtPbf4ESxx5c4I-55" style="edgeStyle=orthogonalEdgeStyle;rounded=0;orthogonalLoop=1;jettySize=auto;html=1;exitX=1;exitY=0.5;exitDx=0;exitDy=0;entryX=0;entryY=0.5;entryDx=0;entryDy=0;dashed=1;endArrow=classic;endFill=1;" edge="1" parent="1" source="yLW3yvbtPbf4ESxx5c4I-53" target="yLW3yvbtPbf4ESxx5c4I-12">
          <mxGeometry relative="1" as="geometry" />
        </mxCell>
        <mxCell id="yLW3yvbtPbf4ESxx5c4I-56" value="&amp;lt;&amp;lt;include&amp;gt;&amp;gt;" style="edgeLabel;html=1;align=center;verticalAlign=middle;resizable=0;points=[];" vertex="1" connectable="0" parent="yLW3yvbtPbf4ESxx5c4I-55">
          <mxGeometry x="-0.1046" y="-2" relative="1" as="geometry">
            <mxPoint as="offset" />
          </mxGeometry>
        </mxCell>
        <mxCell id="yLW3yvbtPbf4ESxx5c4I-57" value="" style="group;verticalAlign=bottom;labelPosition=center;verticalLabelPosition=top;align=center;horizontal=1;" vertex="1" connectable="0" parent="1">
          <mxGeometry x="190" y="85.5" width="440" height="520" as="geometry" />
        </mxCell>
        <mxCell id="yLW3yvbtPbf4ESxx5c4I-58" value="media" style="shape=folder;fontStyle=1;spacingTop=10;tabWidth=50;tabHeight=17;tabPosition=left;html=1;rounded=0;shadow=0;comic=0;labelBackgroundColor=none;strokeWidth=1;fontFamily=Verdana;fontSize=10;align=center;" vertex="1" parent="yLW3yvbtPbf4ESxx5c4I-57">
          <mxGeometry width="440" height="520" as="geometry" />
        </mxCell>
        <mxCell id="yLW3yvbtPbf4ESxx5c4I-59" value="Set &#39;Use NFOs&#39;" style="ellipse;whiteSpace=wrap;html=1;" vertex="1" parent="yLW3yvbtPbf4ESxx5c4I-57">
          <mxGeometry x="290" y="324.5" width="120" height="80" as="geometry" />
        </mxCell>
        <mxCell id="yLW3yvbtPbf4ESxx5c4I-60" value="Add media source" style="ellipse;whiteSpace=wrap;html=1;" vertex="1" parent="yLW3yvbtPbf4ESxx5c4I-57">
          <mxGeometry x="20" y="220" width="120" height="80" as="geometry" />
        </mxCell>
        <mxCell id="yLW3yvbtPbf4ESxx5c4I-61" value="Delete media source" style="ellipse;whiteSpace=wrap;html=1;" vertex="1" parent="yLW3yvbtPbf4ESxx5c4I-57">
          <mxGeometry x="20" y="324.5" width="120" height="80" as="geometry" />
        </mxCell>
        <mxCell id="yLW3yvbtPbf4ESxx5c4I-62" value="Add sync destination" style="ellipse;whiteSpace=wrap;html=1;" vertex="1" parent="yLW3yvbtPbf4ESxx5c4I-57">
          <mxGeometry x="290" y="125" width="120" height="80" as="geometry" />
        </mxCell>
        <mxCell id="yLW3yvbtPbf4ESxx5c4I-63" value="Delete sync destination" style="ellipse;whiteSpace=wrap;html=1;" vertex="1" parent="yLW3yvbtPbf4ESxx5c4I-57">
          <mxGeometry x="290" y="224.50000000000003" width="120" height="80" as="geometry" />
        </mxCell>
        <mxCell id="yLW3yvbtPbf4ESxx5c4I-64" value="Set sync schedule" style="ellipse;whiteSpace=wrap;html=1;" vertex="1" parent="yLW3yvbtPbf4ESxx5c4I-57">
          <mxGeometry x="20" y="125" width="120" height="80" as="geometry" />
        </mxCell>
        <mxCell id="yLW3yvbtPbf4ESxx5c4I-65" value="Set media info manually" style="ellipse;whiteSpace=wrap;html=1;" vertex="1" parent="yLW3yvbtPbf4ESxx5c4I-57">
          <mxGeometry x="290" y="419.5" width="120" height="80" as="geometry" />
        </mxCell>
        <mxCell id="yLW3yvbtPbf4ESxx5c4I-66" value="Read config" style="ellipse;whiteSpace=wrap;html=1;" vertex="1" parent="yLW3yvbtPbf4ESxx5c4I-57">
          <mxGeometry x="20" y="419.25" width="120" height="80" as="geometry" />
        </mxCell>
        <mxCell id="yLW3yvbtPbf4ESxx5c4I-67" value="Save config" style="ellipse;whiteSpace=wrap;html=1;" vertex="1" parent="yLW3yvbtPbf4ESxx5c4I-57">
          <mxGeometry x="150" y="419.5" width="120" height="80" as="geometry" />
        </mxCell>
        <mxCell id="yLW3yvbtPbf4ESxx5c4I-68" style="edgeStyle=orthogonalEdgeStyle;rounded=0;orthogonalLoop=1;jettySize=auto;html=1;exitX=0.5;exitY=1;exitDx=0;exitDy=0;entryX=0.5;entryY=0;entryDx=0;entryDy=0;dashed=1;endArrow=classic;endFill=1;" edge="1" parent="1" source="yLW3yvbtPbf4ESxx5c4I-66" target="yLW3yvbtPbf4ESxx5c4I-53">
          <mxGeometry relative="1" as="geometry" />
        </mxCell>
        <mxCell id="yLW3yvbtPbf4ESxx5c4I-69" value="&amp;lt;&amp;lt;extend&amp;gt;&amp;gt;" style="edgeLabel;html=1;align=center;verticalAlign=middle;resizable=0;points=[];" vertex="1" connectable="0" parent="yLW3yvbtPbf4ESxx5c4I-68">
          <mxGeometry x="-0.2388" y="1" relative="1" as="geometry">
            <mxPoint as="offset" />
          </mxGeometry>
        </mxCell>
        <mxCell id="yLW3yvbtPbf4ESxx5c4I-71" style="edgeStyle=orthogonalEdgeStyle;rounded=0;orthogonalLoop=1;jettySize=auto;html=1;exitX=0.5;exitY=0.5;exitDx=0;exitDy=0;exitPerimeter=0;entryX=0;entryY=0.5;entryDx=0;entryDy=0;endArrow=classic;endFill=1;" edge="1" parent="1" source="yLW3yvbtPbf4ESxx5c4I-1" target="yLW3yvbtPbf4ESxx5c4I-64">
          <mxGeometry relative="1" as="geometry" />
        </mxCell>
        <mxCell id="yLW3yvbtPbf4ESxx5c4I-74" style="edgeStyle=orthogonalEdgeStyle;rounded=0;orthogonalLoop=1;jettySize=auto;html=1;exitX=0.5;exitY=0.5;exitDx=0;exitDy=0;exitPerimeter=0;entryX=0.5;entryY=0;entryDx=0;entryDy=0;endArrow=classic;endFill=1;" edge="1" parent="1" source="yLW3yvbtPbf4ESxx5c4I-1" target="yLW3yvbtPbf4ESxx5c4I-62">
          <mxGeometry relative="1" as="geometry">
            <Array as="points">
              <mxPoint x="65" y="191" />
              <mxPoint x="540" y="191" />
            </Array>
          </mxGeometry>
        </mxCell>
        <mxCell id="yLW3yvbtPbf4ESxx5c4I-77" style="edgeStyle=orthogonalEdgeStyle;rounded=0;orthogonalLoop=1;jettySize=auto;html=1;exitX=0.5;exitY=0.5;exitDx=0;exitDy=0;exitPerimeter=0;entryX=0;entryY=0.5;entryDx=0;entryDy=0;endArrow=classic;endFill=1;" edge="1" parent="1" source="yLW3yvbtPbf4ESxx5c4I-1" target="yLW3yvbtPbf4ESxx5c4I-63">
          <mxGeometry relative="1" as="geometry">
            <Array as="points">
              <mxPoint x="65" y="190" />
              <mxPoint x="450" y="190" />
              <mxPoint x="450" y="350" />
            </Array>
          </mxGeometry>
        </mxCell>
        <mxCell id="yLW3yvbtPbf4ESxx5c4I-78" style="edgeStyle=orthogonalEdgeStyle;rounded=0;orthogonalLoop=1;jettySize=auto;html=1;exitX=0.5;exitY=0.5;exitDx=0;exitDy=0;exitPerimeter=0;entryX=0;entryY=0.5;entryDx=0;entryDy=0;endArrow=classic;endFill=1;" edge="1" parent="1" source="yLW3yvbtPbf4ESxx5c4I-1" target="yLW3yvbtPbf4ESxx5c4I-59">
          <mxGeometry relative="1" as="geometry">
            <Array as="points">
              <mxPoint x="65" y="190" />
              <mxPoint x="450" y="190" />
              <mxPoint x="450" y="450" />
            </Array>
          </mxGeometry>
        </mxCell>
        <mxCell id="yLW3yvbtPbf4ESxx5c4I-79" style="edgeStyle=orthogonalEdgeStyle;rounded=0;orthogonalLoop=1;jettySize=auto;html=1;exitX=0.5;exitY=0.5;exitDx=0;exitDy=0;exitPerimeter=0;entryX=0;entryY=0;entryDx=0;entryDy=0;endArrow=classic;endFill=1;" edge="1" parent="1" source="yLW3yvbtPbf4ESxx5c4I-1" target="yLW3yvbtPbf4ESxx5c4I-65">
          <mxGeometry relative="1" as="geometry">
            <Array as="points">
              <mxPoint x="65" y="190" />
              <mxPoint x="450" y="190" />
              <mxPoint x="450" y="517" />
            </Array>
          </mxGeometry>
        </mxCell>
        <mxCell id="yLW3yvbtPbf4ESxx5c4I-80" style="edgeStyle=orthogonalEdgeStyle;rounded=0;orthogonalLoop=1;jettySize=auto;html=1;exitX=0.5;exitY=0.5;exitDx=0;exitDy=0;exitPerimeter=0;endArrow=classic;endFill=1;entryX=0.5;entryY=0;entryDx=0;entryDy=0;" edge="1" parent="1" source="yLW3yvbtPbf4ESxx5c4I-1" target="yLW3yvbtPbf4ESxx5c4I-67">
          <mxGeometry relative="1" as="geometry">
            <Array as="points">
              <mxPoint x="65" y="190" />
              <mxPoint x="350" y="190" />
              <mxPoint x="350" y="480" />
              <mxPoint x="400" y="480" />
            </Array>
          </mxGeometry>
        </mxCell>
        <mxCell id="yLW3yvbtPbf4ESxx5c4I-73" style="edgeStyle=orthogonalEdgeStyle;rounded=0;orthogonalLoop=1;jettySize=auto;html=1;exitX=0.5;exitY=0.5;exitDx=0;exitDy=0;exitPerimeter=0;entryX=0;entryY=0.5;entryDx=0;entryDy=0;endArrow=classic;endFill=1;" edge="1" parent="1" source="yLW3yvbtPbf4ESxx5c4I-1" target="yLW3yvbtPbf4ESxx5c4I-61">
          <mxGeometry relative="1" as="geometry" />
        </mxCell>
        <mxCell id="yLW3yvbtPbf4ESxx5c4I-82" style="edgeStyle=orthogonalEdgeStyle;rounded=0;orthogonalLoop=1;jettySize=auto;html=1;exitX=0.5;exitY=0.5;exitDx=0;exitDy=0;exitPerimeter=0;endArrow=classic;endFill=1;" edge="1" parent="1" source="yLW3yvbtPbf4ESxx5c4I-1" target="yLW3yvbtPbf4ESxx5c4I-60">
          <mxGeometry relative="1" as="geometry" />
        </mxCell>
        <mxCell id="yLW3yvbtPbf4ESxx5c4I-83" style="edgeStyle=orthogonalEdgeStyle;rounded=0;orthogonalLoop=1;jettySize=auto;html=1;exitX=0.5;exitY=0.5;exitDx=0;exitDy=0;exitPerimeter=0;entryX=1;entryY=0;entryDx=0;entryDy=0;endArrow=classic;endFill=1;" edge="1" parent="1" source="yLW3yvbtPbf4ESxx5c4I-1" target="yLW3yvbtPbf4ESxx5c4I-66">
          <mxGeometry relative="1" as="geometry">
            <Array as="points">
              <mxPoint x="65" y="190" />
              <mxPoint x="350" y="190" />
              <mxPoint x="350" y="517" />
            </Array>
          </mxGeometry>
        </mxCell>
      </root>
    </mxGraphModel>
  </diagram>
</mxfile>
